<mxfile host="Electron" modified="2024-02-13T06:49:24.764Z" agent="Mozilla/5.0 (Windows NT 10.0; Win64; x64) AppleWebKit/537.36 (KHTML, like Gecko) draw.io/23.0.2 Chrome/120.0.6099.109 Electron/28.1.0 Safari/537.36" etag="DapThmvPtROMB6uTnJsb" version="23.0.2" type="device">
  <diagram name="Page-1" id="7C7bj3-lRLlQLStprxSx">
    <mxGraphModel dx="1434" dy="844" grid="1" gridSize="10" guides="1" tooltips="1" connect="1" arrows="1" fold="1" page="1" pageScale="1" pageWidth="827" pageHeight="1169" math="0" shadow="0">
      <root>
        <mxCell id="0" />
        <mxCell id="1" parent="0" />
        <mxCell id="RE_xXbZ1OM9WZP-cfM7T-2" value="" style="rounded=0;whiteSpace=wrap;html=1;" parent="1" vertex="1">
          <mxGeometry x="510" y="90" width="390" height="520" as="geometry" />
        </mxCell>
        <mxCell id="RE_xXbZ1OM9WZP-cfM7T-3" value="" style="rounded=0;whiteSpace=wrap;html=1;" parent="1" vertex="1">
          <mxGeometry x="510" y="710" width="530" height="430" as="geometry" />
        </mxCell>
        <mxCell id="RE_xXbZ1OM9WZP-cfM7T-5" value="Administrator" style="shape=umlActor;verticalLabelPosition=bottom;verticalAlign=top;html=1;outlineConnect=0;" parent="1" vertex="1">
          <mxGeometry x="40" y="110" width="60" height="110" as="geometry" />
        </mxCell>
        <mxCell id="mQNuOfT8fdMKc2TamD2T-3" style="edgeStyle=orthogonalEdgeStyle;rounded=0;orthogonalLoop=1;jettySize=auto;html=1;exitX=0.038;exitY=0.692;exitDx=0;exitDy=0;entryX=0;entryY=0.5;entryDx=0;entryDy=0;exitPerimeter=0;endArrow=none;endFill=0;" edge="1" parent="1" source="mQNuOfT8fdMKc2TamD2T-19" target="mQNuOfT8fdMKc2TamD2T-22">
          <mxGeometry relative="1" as="geometry">
            <Array as="points">
              <mxPoint x="460" y="240" />
              <mxPoint x="460" y="1040" />
            </Array>
          </mxGeometry>
        </mxCell>
        <mxCell id="9W9OZdjhH9qHKFUagA9C-2" value="Front-End" style="text;html=1;strokeColor=none;fillColor=none;align=center;verticalAlign=middle;whiteSpace=wrap;rounded=0;" parent="1" vertex="1">
          <mxGeometry x="510" y="50" width="60" height="30" as="geometry" />
        </mxCell>
        <mxCell id="9W9OZdjhH9qHKFUagA9C-3" value="Back-End" style="text;html=1;strokeColor=none;fillColor=none;align=center;verticalAlign=middle;whiteSpace=wrap;rounded=0;" parent="1" vertex="1">
          <mxGeometry x="510" y="670" width="60" height="30" as="geometry" />
        </mxCell>
        <mxCell id="9W9OZdjhH9qHKFUagA9C-5" value="Tutors/Parents&lt;br&gt;/Students" style="shape=umlActor;verticalLabelPosition=bottom;verticalAlign=top;html=1;outlineConnect=0;" parent="1" vertex="1">
          <mxGeometry x="1300" y="90" width="60" height="110" as="geometry" />
        </mxCell>
        <mxCell id="9W9OZdjhH9qHKFUagA9C-24" value="" style="endArrow=none;html=1;rounded=0;entryX=0;entryY=0.5;entryDx=0;entryDy=0;endFill=0;" parent="1" target="mQNuOfT8fdMKc2TamD2T-19" edge="1">
          <mxGeometry width="50" height="50" relative="1" as="geometry">
            <mxPoint x="120" y="170" as="sourcePoint" />
            <mxPoint x="750" y="410" as="targetPoint" />
          </mxGeometry>
        </mxCell>
        <mxCell id="9W9OZdjhH9qHKFUagA9C-26" value="" style="endArrow=none;html=1;rounded=0;entryX=0.965;entryY=0.337;entryDx=0;entryDy=0;entryPerimeter=0;endFill=0;" parent="1" target="mQNuOfT8fdMKc2TamD2T-20" edge="1">
          <mxGeometry width="50" height="50" relative="1" as="geometry">
            <mxPoint x="1290" y="160" as="sourcePoint" />
            <mxPoint x="1070" y="380" as="targetPoint" />
          </mxGeometry>
        </mxCell>
        <mxCell id="mQNuOfT8fdMKc2TamD2T-9" value="" style="endArrow=none;html=1;rounded=0;exitX=0.5;exitY=1;exitDx=0;exitDy=0;entryX=0.465;entryY=-0.014;entryDx=0;entryDy=0;entryPerimeter=0;endFill=0;" edge="1" parent="1" source="mQNuOfT8fdMKc2TamD2T-20" target="mQNuOfT8fdMKc2TamD2T-21">
          <mxGeometry width="50" height="50" relative="1" as="geometry">
            <mxPoint x="700" y="650" as="sourcePoint" />
            <mxPoint x="750" y="600" as="targetPoint" />
          </mxGeometry>
        </mxCell>
        <mxCell id="mQNuOfT8fdMKc2TamD2T-18" value="" style="endArrow=none;html=1;rounded=0;entryX=0;entryY=0.5;entryDx=0;entryDy=0;endFill=0;" edge="1" parent="1" target="mQNuOfT8fdMKc2TamD2T-20">
          <mxGeometry width="50" height="50" relative="1" as="geometry">
            <mxPoint x="120" y="200" as="sourcePoint" />
            <mxPoint x="750" y="380" as="targetPoint" />
          </mxGeometry>
        </mxCell>
        <mxCell id="mQNuOfT8fdMKc2TamD2T-19" value="&lt;font style=&quot;font-size: 18px;&quot;&gt;Request &lt;br&gt;Add/Remove User or&amp;nbsp;&lt;br&gt;Change User Permission&lt;/font&gt;" style="ellipse;whiteSpace=wrap;html=1;" vertex="1" parent="1">
          <mxGeometry x="562.5" y="150" width="280" height="130" as="geometry" />
        </mxCell>
        <mxCell id="mQNuOfT8fdMKc2TamD2T-20" value="&lt;font style=&quot;font-size: 18px;&quot;&gt;Log-in Prompt&lt;/font&gt;" style="ellipse;whiteSpace=wrap;html=1;" vertex="1" parent="1">
          <mxGeometry x="560" y="330" width="270" height="130" as="geometry" />
        </mxCell>
        <mxCell id="mQNuOfT8fdMKc2TamD2T-21" value="&lt;font style=&quot;font-size: 18px;&quot;&gt;Validate&lt;br&gt;Credentials&lt;/font&gt;" style="ellipse;whiteSpace=wrap;html=1;" vertex="1" parent="1">
          <mxGeometry x="580" y="730" width="250" height="130" as="geometry" />
        </mxCell>
        <mxCell id="mQNuOfT8fdMKc2TamD2T-22" value="&lt;font style=&quot;font-size: 18px;&quot;&gt;Add/Remove User&lt;br&gt;or Change User Permission&lt;/font&gt;" style="ellipse;whiteSpace=wrap;html=1;" vertex="1" parent="1">
          <mxGeometry x="530" y="970" width="240" height="140" as="geometry" />
        </mxCell>
        <mxCell id="mQNuOfT8fdMKc2TamD2T-24" value="&lt;font style=&quot;font-size: 18px;&quot;&gt;Check Credentials&lt;/font&gt;" style="ellipse;whiteSpace=wrap;html=1;" vertex="1" parent="1">
          <mxGeometry x="800" y="900" width="210" height="140" as="geometry" />
        </mxCell>
        <mxCell id="mQNuOfT8fdMKc2TamD2T-25" value="" style="endArrow=classic;html=1;rounded=0;exitX=0;exitY=0;exitDx=0;exitDy=0;entryX=1;entryY=1;entryDx=0;entryDy=0;dashed=1;" edge="1" parent="1" source="mQNuOfT8fdMKc2TamD2T-24" target="mQNuOfT8fdMKc2TamD2T-21">
          <mxGeometry width="50" height="50" relative="1" as="geometry">
            <mxPoint x="760" y="640" as="sourcePoint" />
            <mxPoint x="810" y="590" as="targetPoint" />
          </mxGeometry>
        </mxCell>
      </root>
    </mxGraphModel>
  </diagram>
</mxfile>
